<?xml version="1.0" encoding="utf-8"?>
<!-- Generator: Adobe Illustrator 25.0.1, SVG Export Plug-In . SVG Version: 6.00 Build 0)  -->
<svg version="1.1" id="Layer_1" xmlns="http://www.w3.org/2000/svg" xmlns:xlink="http://www.w3.org/1999/xlink" x="0px" y="0px"
	 viewBox="0 0 249.2 223" style="enable-background:new 0 0 249.2 223;" xml:space="preserve">
<style type="text/css">
	.st0{fill:#ED1F24;stroke:#000000;stroke-width:4;stroke-miterlimit:10;}
	.st1{fill:#ED1F24;}
	.st2{fill:#986A28;stroke:#000000;stroke-miterlimit:10;}
	.st3{fill:#FFEEC7;stroke:#000000;stroke-miterlimit:10;}
	.st4{fill:#392813;stroke:#000000;stroke-miterlimit:10;}
	.st5{fill:#704F1F;stroke:#000000;stroke-miterlimit:10;}
	.st6{fill:#DFAF66;stroke:#000000;stroke-miterlimit:10;}
	.st7{fill:#FFCE08;stroke:#000000;stroke-miterlimit:10;}
	.st8{fill:none;}
	.st9{fill:#FFCD05;stroke:#000000;stroke-linecap:round;stroke-linejoin:round;stroke-miterlimit:10;}
</style>
<g>
	<path class="st0" d="M124.3,182.7c0,0,59.9-24,59.9-78.9s0-78.9,0-78.9h-59.9H64.4c0,0,0,24,0,78.9S124.3,182.7,124.3,182.7z"/>
	<path d="M184.2,24.9h-22.8c0,0-84.2,84.2-95.2,95.2c5.4,20.2,15.2,30.5,15.2,30.5L184.2,47.7V24.9z"/>
</g>
<g>
	<g>
		<ellipse class="st1" cx="124.3" cy="93.6" rx="47" ry="47"/>
		<path d="M124.3,48.6c24.8,0,45,20.1,45,45s-20.1,45-45,45s-45-20.1-45-45S99.5,48.6,124.3,48.6 M124.3,44.6c-27,0-49,22-49,49
			s22,49,49,49s49-22,49-49S151.3,44.6,124.3,44.6L124.3,44.6z"/>
	</g>
	<g>
		<path class="st2" d="M93.5,113L93.5,113l16,3.5l0,0l-7.7,5.9c5.9,4.4,16.6,7.7,24.5,7.2c2.2-0.2,4.4-0.5,6.5-1.1l-5.9,10l0,0
			c-20,1.4-37.8-10.5-44.9-28.1L93.5,113z"/>
		<path class="st3" d="M137.1,60.1l10.7-4.7c11.8,7.4,20,20.1,21.1,35.1c0.3,4.9-0.1,9.6-1.2,14.1l-7.8-8.7L149,83.6l9.1-0.4
			c-2.2-7.4-8.7-16-15.1-20C141.2,61.9,139.2,60.9,137.1,60.1z"/>
		<path class="st4" d="M95,59.1c7-5.9,15.9-9.7,25.8-10.4c9.9-0.7,19.2,1.9,27,6.7l-10.7,4.7L122,66.7l2.2-9.1
			c-7.9-0.1-17.9,3.7-23.5,8.4c-1.7,1.4-3.3,3-4.7,4.7L95,59.1z"/>
		<path class="st5" d="M79,96.8c-1-14.9,5.3-28.7,16-37.7l1.1,11.6L97.7,87l0,0v0.1l-8.1-5.2c-1.2,3.5-1.8,10.4-1.6,14.2
			c0.3,3.9,1.1,7.6,2.5,11c0.8,2.1,1.9,4,3,5.9l-11.4-2.5C80.4,106.3,79.3,101.7,79,96.8z"/>
		<path class="st6" d="M127.1,138.6L127.1,138.6l5.9-10l8.3-14.2l3,8.8c6.2-4.3,12.8-13.3,14.6-20.8c0.5-2.1,0.9-4.3,1-6.6l7.8,8.7
			C163.1,123,147.1,137.2,127.1,138.6z"/>
	</g>
</g>
<g>
	<polygon class="st7" points="137.5,111.8 124.3,102.5 111.4,111.8 115.8,96.4 103.3,86.9 119.1,86.4 124.4,71.5 129.5,86.4 
		145.6,86.9 132.8,96.4 	"/>
	<line class="st8" x1="119.1" y1="86.4" x2="137.5" y2="111.8"/>
	<line class="st8" x1="111.4" y1="111.8" x2="129.5" y2="86.4"/>
	<line class="st8" x1="103.3" y1="86.9" x2="132.8" y2="96.4"/>
	<line class="st8" x1="124.4" y1="71.5" x2="124.3" y2="102.5"/>
	<line class="st8" x1="115.8" y1="96.4" x2="145.6" y2="86.9"/>
</g>
<path id="path2906_1_" class="st9" d="M183.2,7.2C183.1,7.2,183.1,7.2,183.2,7.2c0.2,2,2.8,3.1,3.6,4.9c1.2,1.4,3.2,4.1,4.4,6.1
	s2.5,3.9,2.9,4.3s1.4,1.7,2.3,3c2,2.6,6.7,7.8,9.9,10.6c1.2,1.1,2.7,2.5,3.3,3.1c1.6,1.5,2.3,1.4,1.5-0.2c-0.2-0.4-0.7-2-1.1-3.5
	c-0.4-1.5-0.9-3-1-3.4c-0.8-2.7-1.7-5.1-3.1-7.5c-0.8-1.6-1.6-3.1-2.7-4.4c-1.3-2.1-3.2-3.8-5-5.3c-4.1-3.3-8.7-5.2-13.4-7.1
	C184.1,7.5,183.4,7.2,183.2,7.2L183.2,7.2z M62.9,8.8c-3,0.1-5.9,2.7-8.7,3.8c-3.9,2-6.1,3.7-8.9,6.7c-2.4,2.6-6.1,8.9-6.5,10.9
	c-0.3,1.7-1.4,5.9-2.1,7.7c-0.3,0.9-0.7,2.1-0.8,2.6c-0.4,1.5,0.2,1.3,2.3-0.8c1-1,2.5-2.4,3.3-3.1s1.8-1.6,2.3-2.1s1.8-1.9,2.9-3
	c1.1-1.2,2.9-3.4,3.9-4.9c1-1.6,2.9-4.4,4.2-6.4c1.7-2.6,3.3-5.3,5.5-7.5c1.7-2,3.1-3.8,3.1-4C63.3,8.8,63.1,8.8,62.9,8.8L62.9,8.8z
	 M204.7,18.9l1.8,2.2c1,1.2,1.9,2.3,2.1,2.4c1.8,2.9,2.9,6.1,3.5,9.5c0.3,1.1,0.9,3.4,1.3,5c0.4,1.6,1,4.3,1.4,5.9
	c1.3,4.8,1.3,5,1,5c-0.1,0-0.9-0.7-1.6-1.6c-2.7-3.4-3.4-4.1-8.3-7.9c-1.6-1.2-3.2-2.5-3.7-3c-0.4-0.4-1.3-1.1-2.1-1.6
	c-1.4-0.9-2.2-1.9-4.6-5.7l-1.5-2.3l0.3,2.3c0.3,2.7,1,4.8,2.8,8.9c1.3,3,6.4,9.1,10,12.1c6.5,5.2,12.3,11.5,13.6,14.6
	c0.4,0.9,0.8,1.5,0.9,1.4c0.1-0.1,0.2-6.1,0.2-13.3c0-13.9-0.2-15.5-2.3-20.2c-2.8-6.1-9-12.3-13.6-13.4L204.7,18.9L204.7,18.9z
	 M41.1,20.8c-1.4,0.1-5.5,2.6-7.8,5.2c-4.5,4.9-6.2,8.1-7.1,13.7c-1,6.2-1.1,8.4-0.5,14.7c0.3,3.4,0.5,7.7,0.4,9.7
	c-0.1,2.2-0.1,3.5,0.2,3.5c0.2,0,0.5-0.4,0.7-0.8c1-2.9,5.6-8.6,9.9-12.1c7.2-5.9,12.5-12.8,14.8-19.3c1.4-4.1,1.7-6,0.9-5.8
	c-0.4,0.1-0.9,0.8-1.3,1.5c-1,1.9-3.7,4.7-8.3,8.5c-4.3,3.8-9,7.1-11.8,12.6c-1.2,3.2-0.9,1,0.4-3.2c0.8-2.4,1.7-5.9,2.1-7.9
	c1.1-5.6,1.8-8.9,2.6-11.1c0.9-2.8,3.1-6.6,4.4-7.5c0.6-0.4,1.1-0.9,1.1-1.2C41.6,20.8,41.4,20.7,41.1,20.8L41.1,20.8z M222.7,35.3
	c-0.5,0.1-0.3,1,0.6,2.5c0.3,0.5,0.8,2.1,1.2,3.6c0.6,2.4,0.7,3.7,0.4,10.4c-0.2,4.3-0.4,12.1-0.4,17.4c0,6.1-0.1,9.1-0.3,8.2
	c-0.9-4.1-1.4-5.4-3.1-8.3c-1-1.7-3.4-4.6-5.2-6.4c-4.8-4.7-9.5-9.9-10.3-11.3c-0.4-0.7-0.9-1.1-1.1-0.9c-0.4,0.4,0.7,5.2,1.7,7.7
	c1.1,3.4,2.2,6.6,4.1,9.5c3.1,5.3,6.9,10.1,9.9,15.4c1.7,2.8,3.5,6.8,4.4,10.2c0.4,1.6,0.9,2.8,1,2.8c2.5-5.8,3-13.2,5.1-18.9
	c3-7.6,2.4-23.2-1.2-31.1c-1.7-4-3.7-7.8-6.6-10.9C222.8,35.3,222.8,35.3,222.7,35.3L222.7,35.3z M24.4,37.3
	c-0.5,0.1-2.3,2.3-3.7,5.1c-1.5,2.9-2.9,5.8-4.1,8.9c-0.1,0.6-0.3,1.8-0.6,2.7c-1.3,8.4-1.4,17.3,1.6,25.2c0.5,1.5,1.4,4.5,2.1,6.6
	c0.7,2.1,1.4,4.4,1.5,5c0.2,1.1,0.6,3.1,0.8,3.6c0,0.1,0.2,0.9,0.4,1.8l0.3,1.5l0.5-1.3c0.3-0.7,0.7-2.3,1-3.5c1-3.6,4.1-9,6.1-11.9
	c1.8-2.9,3.5-5.8,3.8-6.4c1.8-2.7,3.7-5.4,5-8.5c0-0.2,0.5-1.7,1.2-3.2c2-4.7,3.2-10.3,2.2-10.3c-0.2,0-1.1,1.1-2.1,2.5
	c-0.9,1.4-1.9,2.5-2,2.5C31.7,63.1,25.3,70.7,23.6,80c-0.5,3.6-0.6,1.2-0.2-4.2c0.5-5.6,0.3-10.1-0.9-19.4
	c-0.9-6.9-0.3-13.2,1.5-17.3C24.6,37.7,24.7,37.2,24.4,37.3L24.4,37.3z M235.5,68.5c-0.2,0-0.3,1.2-0.5,4.5c-0.5,6.3-2,12.2-4.3,18
	c-2.4,5.5-4.4,11.3-5.5,17.3c-0.4,2.9-0.7,1.8-0.8-2.5c-0.1-4.2-0.5-6.1-2-9.3c-0.9-2.1-1.5-4.4-2.8-6.4c-2.4-3.7-4.3-7.9-6.2-11.9
	c-0.6-1.2-1-2.5-1-2.8c0-1-0.7-0.6-1,0.5c-0.5,2,0.4,8.8,2.1,17.1c1,5,3.3,14,4.7,18.2c1.2,3.9,1.7,8,1.4,12.6c-0.3,5,0,5.7,1.4,3.4
	c0.4-0.7,3.3-4.9,6.4-9.5c3.1-4.5,6-9.1,6.5-10.2c5.1-11.5,6-28.5,1.9-38.6C235.6,68.7,235.6,68.5,235.5,68.5L235.5,68.5z
	 M12.3,70.5c-0.9,1-2.5,11-2.5,15.4c0,4.3,0.7,10.6,1.5,13.4c2.3,8.6,5.9,16.3,11.8,22.8c1.7,2.4,3.6,5.2,4.1,6.2
	c1.6,3.3,1.8,2.5,1.8-4.8c0-4.8,0.4-9.3,2.1-13.7c0.4-1.4,0.9-3.5,1.2-4.8c0.3-1.2,0.9-3.5,1.3-5c0.4-1.5,0.9-3.8,1.3-5
	c0.7-2.8,0.6-5.7,1.2-8.6c0.6-2.9,0.9-11.1,0.3-11.1c-3.1,3.8-9.8,21.6-10.5,22.9c-1.6,4.9-1.9,6.8-1.8,11.5c0.2,5.2-0.3,5.7-1,1
	c-0.9-6-2.1-10.5-3.9-14.3c-0.6-1.2-1.1-2.4-1.1-2.6c0-0.2-0.6-1.7-1.2-3.3c-0.7-1.6-1.2-3-1.2-3.2s-0.3-1-0.6-1.8
	c-1.3-3.3-1.9-6.2-2.2-10.6C12.6,72.3,12.4,70.3,12.3,70.5L12.3,70.5z M213.1,102.1c-1.7,3.3-2.2,7.6-3.3,11.3
	c-0.6,3.3-2.1,18.4-2.1,21.1c0,4.6-2.4,17.4-3.8,20.1c-1.2,2.4-1.5,3.1-1.3,3.5c4.4-2.8,8.8-6,13-9.2c1.3-0.8,2.4-1.9,3.7-2.7
	c0.9-0.7,1.7-1.4,1.8-1.4c6.9-6,12.8-13.4,15.7-22.7c1.7-5.5,2.5-14.5,1.7-17c-0.4-1-1,0-1,1.6c0,1.4-2.1,7.2-2.9,8.1
	c-0.1,0.1-0.8,1.1-1.4,2.2c-0.7,1.1-3.3,4.4-5.8,7.3c-2.5,2.9-5.3,6.2-6.1,7.3c-1.5,1.8-2.9,3.7-4.1,5.8c-1,1.4-2.6,4.1-2.7,4.3
	c-1.3,1.9-2,3.1-2.1,3.1c0-0.1,0.5-1.1,1.4-3.2c1-2.3,1.8-5.1,2.3-9.2c0.5-4.1,0.3-7.5-1-14.7c-1.1-5.7-1.4-9.1-1.4-12.4
	C213.5,103.4,213.4,102.1,213.1,102.1L213.1,102.1z M35.4,105.3c-0.2,0-0.4,0.5-0.4,1.5c0,1.9-1.3,10-2.1,13.3
	c-0.3,1.2-0.5,5-0.5,9.3c0,4.8,0.1,9.7,2.5,13.9c0.6,1,1,1.9,0.9,2.1c-2-1.9-2.8-4.9-4.6-7c-0.7-1.1-2.3-3.3-3.7-5
	c-2.9-3.5-9.5-11.2-10.9-12.6c-0.5-0.6-0.9-1.1-0.9-1.3s-0.5-1-1.2-1.9c-1.5-2.2-3.4-6.7-3.6-8.5c-0.1-0.8-0.3-1.8-0.6-2.3
	c-0.7-1.3-0.6,8,0.2,12.4c0.8,4.5,1.4,6.4,3.6,11c2.1,4.4,5.7,9.2,8.8,11.9c1.2,1.1,2.3,2.2,2.3,2.3c4.3,3.3,8.6,6.8,13,9.9
	c0.3,0,2.1,1.2,4,2.7c4.7,3.6,4.7,3.5,3.2-0.2c-0.5-1.3-1.3-3-1.6-3.9c-1.2-3.1-2.5-11.1-3-18.2c-0.7-10.2-2.3-21.8-3.8-26.8
	C36.2,106.3,35.7,105.4,35.4,105.3L35.4,105.3z M205.3,128.3h-0.1c-0.3,0.1-0.8,0.7-1.4,1.8c-0.7,1.2-1.8,2.8-2.3,3.5
	c-2.7,4.2-5.2,8.7-6.8,13.4c0,0.3-0.2,0.8-0.4,1.3c-0.2,0.4-1.2,3.2-2.1,6.2c-2,6.5-2.8,9.1-3.3,10.1c-0.2,0.4-0.8,1.7-1.3,2.8
	c-1.5,3.5-3.4,6.5-5.7,9c-0.7,0.8-1.4,1.6-1.4,1.7c0,0.4,1.7,0.2,2.4-0.2c0.9-0.5,6-1.8,9.1-2.3c5.8-0.9,8-1.5,13.2-3.7
	c3.6-1.5,10.7-6.9,14.7-11.1c3.4-3.7,6.5-8.4,8.4-12.9c1.2-2.8,3-9.5,2.7-9.9c-0.1-0.1-0.5,0.6-1,1.6c-1.4,2.8-1.7,3.3-4.2,6.2
	c-2.1,2.5-6.1,6.2-7.4,6.8c-0.3,0.2-1.2,0.7-1.9,1.2s-2.6,1.6-4.3,2.5s-3.4,1.8-3.7,2.1c-0.3,0.2-1.6,0.9-2.8,1.6
	c-4.3,2.6-8.6,5.5-12.3,9.1c-0.8,0.9-1.6,1.6-1.7,1.6c-0.2,0,1.1-1.8,2.2-2.9c3.6-4.7,6.2-10.1,7.4-16.1c0.4-1.9,0.9-5.6,1.3-8.2
	c0.9-6.5,1.8-10.8,2.6-12.8c0.5-1.2,0.5-1.9,0.2-2.2C205.4,128.3,205.3,128.3,205.3,128.3L205.3,128.3z M43,129.8
	c-1,0.1,1.7,6.4,1.5,8c1.4,7,1.6,8.5,1.6,9.8c0,3.1,2.9,13.6,4.1,14.9c1.3,2.8,2.7,5.2,5.1,7l3,3.2l-2.5-1.9c-1.4-1-2.8-2.2-3.2-2.6
	c-4-2.6-7.5-6.1-11.9-8c-13.1-6.7-18.2-10.8-22.4-18.5c-1-1.9-1.1-2-0.9-0.8c0.1,0.7,0.3,2,0.5,2.7c2.4,7.6,6.3,14.3,11.8,19.8
	c1.2,1.1,2.5,2.4,3,2.9c5.5,4.8,12.1,8.2,19.1,9.4c2.7,0.5,6,1.1,7.2,1.4c0.8,0.2,10.1,3,9.1,1.3c-1.2,0-5.3-6-7.4-10.9
	c-0.5-1.1-1.1-2.4-1.3-2.8c-0.5-1-1.2-3.3-3.3-10c-2.2-7.3-5.2-14-7.9-17.8c-0.2-0.2-1.2-1.8-2.4-3.4c-1.1-1.6-2.1-3.1-2.1-3.3
	C43.3,129.9,43.1,129.8,43,129.8L43,129.8z M189.8,154.5c-0.7,0-3.9,2.6-6.2,5c-1.2,1.3-3,3-3.8,3.8c-0.9,0.8-4.3,4.4-7.7,8.1
	c-5.6,6-11.7,11.3-19.8,12.5c-0.6,0-1.1,0.2-1.3,0.4c-0.3,0.5,0.7,1,2.3,1c1.2,0,4.9,0.9,8.4,1.9c0.9,0.3,2.4,0.7,3.3,0.9
	c0.9,0.2,3.4,0.8,5.6,1.3c7.6,1.8,15.7,2.5,23.1-0.5c6.5-2.4,12.3-6.9,16.7-12.7c1.5-1.7,4.3-7,3.6-6.7c-0.2,0.1-1.4,1.2-2.6,2.4
	c-2.3,2.4-3.2,3.1-4.8,3.8c-0.5,0.2-1.7,0.9-2.7,1.4c-2.7,1.4-8.1,2.6-16.2,3.4c-6.6,0.7-13.2,2-19.7,2.4c3.6-1.2,7-3.1,10-5.6
	c1.4-1.4,5.1-7.3,6.3-10.2c0.4-0.9,1.2-2.8,1.8-4.3s1.2-2.8,1.2-3c0-0.1,0.6-1.3,1.4-2.6C189.5,155.8,190,154.6,189.8,154.5
	C189.9,154.5,189.9,154.5,189.8,154.5L189.8,154.5z M58.6,155.4c-0.4,0-0.1,0.8,0.7,2.2c1.7,3,1.9,3.4,4.3,8.5
	c2.9,6.3,4.8,9.4,7,11.7c2,2.2,5.8,4.4,7.9,4.9c0.8,0.2,1.8,0.8,1.8,0.8s-2.1,0-3.2-0.3c-1.8-0.4-14-1.7-20.5-2.2
	c-8.2-0.6-15-3.3-19.5-7.7c-2.5-2.4-3.4-2.5-1.8-0.2c0.5,0.8,1.4,2.1,1.8,2.8c3.8,5.2,8.9,9.9,14.5,12.5c0.5,0.5,2.8,1.4,6.2,2.3
	c3.7,1,10.2,1.1,16.1,0.2c2.5-0.4,4.6-0.8,4.8-0.9c0.2-0.1,1.2-0.4,2.3-0.6c1.1-0.2,3.4-0.8,5.1-1.4c1.7-0.5,5-1.4,7.4-2l4.3-1
	l-2-0.6c-1.1-0.3-2.7-0.9-3.4-1.2c-3.6-1.6-7.3-2.7-10.4-5.4c-0.8-0.7-3.1-3-5.2-5.2c-5.5-5.8-10.9-11.2-13.7-13.7
	C60.6,156.5,59,155.3,58.6,155.4L58.6,155.4z M136.8,184.2c-2.2,0-4.6,0.3-7.2,0.8c-0.6,0.1-1.7,0.4-2.5,0.7
	c-2.5,0.9-3.2,0.9-4.8,0.2c-1.3-0.6-3.1-1.2-9.8-1.2c-3.9,0.1-7.8,0.2-11.5,1.7c-2.3,0.5-4.4,1.7-6.6,2.4c-1.4,0.6-3.7,1.6-5.1,2.2
	c-1.4,0.6-3.7,1.7-5.2,2.4c-3.6,1.8-8.4,3.2-12.9,3.5c-4.6,0.4-9.6-0.7-13.8-2.9c-3.2-1.7-3.4-1.7-3.4-1.1c3.8,5,8.8,8.2,14.2,10.5
	c1.7,1,9.3,2.3,11.7,1.9c2.7-0.4,7.5-1.5,8.6-1.9c3.5-1.5,5.1-2.3,8.2-4.3c2.8-1.9,5.4-4,8.1-5.9c4.5-3.7,10.4-5.9,13.7-5
	c1.1,0.3,0.9,0.5-2.6,2.4c-4.9,2.7-8.6,5.4-13.6,9.9c-4.9,4.4-8.2,7.8-8,8.4c0.1,0.2,1.1,1.2,2.2,2.3c1.1,1,2.3,1.9,2.5,1.9
	c0.3,0,1-0.8,1.7-1.7c2.2-3.2,11.1-12.3,13.3-13.7c2.2-1.5,4.1-3.6,6.4-4.8c0.9-0.5,1.9-1.1,2.2-1.5c1.3-1.3,5.1,0.1,8.8,3.2
	c0.6,0.5,1.8,1.5,2.7,2.2c2.8,2.3,4.8,4.2,6.8,6.1c2.3,2.3,4.2,4.9,6.6,7.1c1.6,1.8,2.7,2.7,3.2,2.6c1-0.2,4.3-4,4.1-4.6
	c-0.4-1.2-7-7.2-12.2-11.1c-1.9-1.4-3.6-2.7-3.7-2.9s-0.8-0.6-1.4-1c-0.7-0.4-2.6-1.5-4.3-2.5l-3-1.8l1.3-0.3
	c3.8-0.8,7,0.2,12.5,4.3c2.2,1.7,4.2,3.5,6.6,4.9c6.5,4.7,13.2,7,20.6,7c5.9,0,9.7-1.2,15.5-4.7c3.7-2.3,9.4-7.7,8.8-8.3
	c-0.1-0.1-1.3,0.4-2.7,1.2c-4.3,2.6-7.4,3.3-14.2,3.3c-5-0.1-9.7-0.9-14.4-3.3c-3.8-2-7.8-3.6-11.7-5.3c-1.5-0.8-3.1-1-4.7-1.5
	c-2.4-0.8-5.8-1.5-9.9-1.5C137.5,184.2,137.1,184.2,136.8,184.2L136.8,184.2z"/>
</svg>
